<mxfile host="Electron" modified="2023-09-12T14:48:34.825Z" agent="Mozilla/5.0 (Windows NT 10.0; Win64; x64) AppleWebKit/537.36 (KHTML, like Gecko) draw.io/21.6.8 Chrome/114.0.5735.289 Electron/25.5.0 Safari/537.36" etag="jCkCysiuEtQwx5jtfxzw" version="21.6.8" type="device">
  <diagram name="Page-1" id="j1YO9GQ5C4ZQY-qCq_Rx">
    <mxGraphModel dx="1057" dy="1769" grid="1" gridSize="10" guides="1" tooltips="1" connect="1" arrows="1" fold="1" page="1" pageScale="1" pageWidth="850" pageHeight="1100" math="0" shadow="0">
      <root>
        <mxCell id="0" />
        <mxCell id="1" parent="0" />
        <mxCell id="i-GZ9zYqHp_gwMMXOJRL-6" value="Users" style="swimlane;fontStyle=0;childLayout=stackLayout;horizontal=1;startSize=26;fillColor=none;horizontalStack=0;resizeParent=1;resizeParentMax=0;resizeLast=0;collapsible=1;marginBottom=0;whiteSpace=wrap;html=1;" vertex="1" parent="1">
          <mxGeometry x="80" y="90" width="200" height="270" as="geometry" />
        </mxCell>
        <mxCell id="i-GZ9zYqHp_gwMMXOJRL-7" value="+ user_id (Primary): int&lt;br&gt;+ username: varchar&lt;br&gt;+ password: varchar&lt;br&gt;+ type: varchar&lt;br&gt;+ email: varchar&lt;br&gt;+ first_name: varchar&lt;br&gt;+ last_name: varchar&lt;br&gt;+ language_preference: varchar&lt;br&gt;+ date_created: dateTime&lt;br&gt;+ date_updated: dateTime&lt;br&gt;+ location: varchar&lt;br&gt;+ local_time_zone: dateTime" style="text;strokeColor=none;fillColor=none;align=left;verticalAlign=top;spacingLeft=4;spacingRight=4;overflow=hidden;rotatable=0;points=[[0,0.5],[1,0.5]];portConstraint=eastwest;whiteSpace=wrap;html=1;" vertex="1" parent="i-GZ9zYqHp_gwMMXOJRL-6">
          <mxGeometry y="26" width="200" height="244" as="geometry" />
        </mxCell>
        <mxCell id="i-GZ9zYqHp_gwMMXOJRL-14" value="CustomCardSets" style="swimlane;fontStyle=0;childLayout=stackLayout;horizontal=1;startSize=26;fillColor=none;horizontalStack=0;resizeParent=1;resizeParentMax=0;resizeLast=0;collapsible=1;marginBottom=0;whiteSpace=wrap;html=1;" vertex="1" parent="1">
          <mxGeometry x="410" y="90" width="240" height="120" as="geometry" />
        </mxCell>
        <mxCell id="i-GZ9zYqHp_gwMMXOJRL-15" value="+ custom_card_set_id (Primary): int&lt;br&gt;+ user_id (Primary): varchar&lt;br&gt;+ name_of_card_set: varchar&lt;br&gt;+ date_created: dateTime&amp;nbsp;&lt;br&gt;+ date_updated: dateTime" style="text;strokeColor=none;fillColor=none;align=left;verticalAlign=top;spacingLeft=4;spacingRight=4;overflow=hidden;rotatable=0;points=[[0,0.5],[1,0.5]];portConstraint=eastwest;whiteSpace=wrap;html=1;" vertex="1" parent="i-GZ9zYqHp_gwMMXOJRL-14">
          <mxGeometry y="26" width="240" height="94" as="geometry" />
        </mxCell>
        <mxCell id="i-GZ9zYqHp_gwMMXOJRL-20" value="Cards" style="swimlane;fontStyle=0;childLayout=stackLayout;horizontal=1;startSize=26;fillColor=none;horizontalStack=0;resizeParent=1;resizeParentMax=0;resizeLast=0;collapsible=1;marginBottom=0;whiteSpace=wrap;html=1;" vertex="1" parent="1">
          <mxGeometry x="820" y="80" width="200" height="330" as="geometry" />
        </mxCell>
        <mxCell id="i-GZ9zYqHp_gwMMXOJRL-21" value="+ card_id: int&lt;br&gt;+ user_id: varchar&lt;br&gt;+ title: varchar&lt;br&gt;+ language: varchar&lt;br&gt;+ article: varchar&lt;br&gt;+ grammar_type: varchar&lt;br&gt;+ description: varchar&lt;br&gt;+ usage_frequency: double&lt;br&gt;+ content: varchar&lt;br&gt;+ word_family: varchar&lt;br&gt;+ word_relation: varchar&lt;br&gt;+ date_created: dateTime&lt;br&gt;+ date_updated: dateTime&lt;br&gt;+ native_word: varchar&lt;br&gt;+ target_word: varchar&lt;br&gt;+ defintion: BLOB" style="text;strokeColor=none;fillColor=none;align=left;verticalAlign=top;spacingLeft=4;spacingRight=4;overflow=hidden;rotatable=0;points=[[0,0.5],[1,0.5]];portConstraint=eastwest;whiteSpace=wrap;html=1;" vertex="1" parent="i-GZ9zYqHp_gwMMXOJRL-20">
          <mxGeometry y="26" width="200" height="304" as="geometry" />
        </mxCell>
        <mxCell id="i-GZ9zYqHp_gwMMXOJRL-31" value="Users" style="swimlane;fontStyle=0;childLayout=stackLayout;horizontal=1;startSize=26;fillColor=none;horizontalStack=0;resizeParent=1;resizeParentMax=0;resizeLast=0;collapsible=1;marginBottom=0;whiteSpace=wrap;html=1;" vertex="1" parent="1">
          <mxGeometry x="1790" y="-1050" width="210" height="210" as="geometry" />
        </mxCell>
        <mxCell id="i-GZ9zYqHp_gwMMXOJRL-32" value="+ user_id: varchar&lt;br&gt;+ first_name: varchar" style="text;strokeColor=none;fillColor=none;align=left;verticalAlign=top;spacingLeft=4;spacingRight=4;overflow=hidden;rotatable=0;points=[[0,0.5],[1,0.5]];portConstraint=eastwest;whiteSpace=wrap;html=1;" vertex="1" parent="i-GZ9zYqHp_gwMMXOJRL-31">
          <mxGeometry y="26" width="210" height="184" as="geometry" />
        </mxCell>
        <mxCell id="i-GZ9zYqHp_gwMMXOJRL-36" value="Classname" style="swimlane;fontStyle=0;childLayout=stackLayout;horizontal=1;startSize=26;fillColor=none;horizontalStack=0;resizeParent=1;resizeParentMax=0;resizeLast=0;collapsible=1;marginBottom=0;whiteSpace=wrap;html=1;" vertex="1" parent="1">
          <mxGeometry x="2180" y="-1050" width="200" height="52" as="geometry" />
        </mxCell>
        <mxCell id="i-GZ9zYqHp_gwMMXOJRL-37" value="+ field: type" style="text;strokeColor=none;fillColor=none;align=left;verticalAlign=top;spacingLeft=4;spacingRight=4;overflow=hidden;rotatable=0;points=[[0,0.5],[1,0.5]];portConstraint=eastwest;whiteSpace=wrap;html=1;" vertex="1" parent="i-GZ9zYqHp_gwMMXOJRL-36">
          <mxGeometry y="26" width="200" height="26" as="geometry" />
        </mxCell>
        <mxCell id="i-GZ9zYqHp_gwMMXOJRL-41" value="" style="edgeStyle=entityRelationEdgeStyle;fontSize=12;html=1;endArrow=ERzeroToMany;startArrow=ERzeroToOne;rounded=0;entryX=0;entryY=0.5;entryDx=0;entryDy=0;" edge="1" parent="1" source="i-GZ9zYqHp_gwMMXOJRL-7" target="i-GZ9zYqHp_gwMMXOJRL-15">
          <mxGeometry width="100" height="100" relative="1" as="geometry">
            <mxPoint x="480" y="310" as="sourcePoint" />
            <mxPoint x="580" y="210" as="targetPoint" />
            <Array as="points">
              <mxPoint x="510" y="340" />
              <mxPoint x="630" y="440" />
              <mxPoint x="660" y="290" />
              <mxPoint x="620" y="280" />
              <mxPoint x="400" y="320" />
              <mxPoint x="530" y="250" />
              <mxPoint x="370" y="320" />
              <mxPoint x="330" y="290" />
              <mxPoint x="370" y="310" />
              <mxPoint x="370" y="270" />
              <mxPoint x="340" y="310" />
              <mxPoint x="590" y="310" />
              <mxPoint x="630" y="300" />
              <mxPoint x="380" y="350" />
            </Array>
          </mxGeometry>
        </mxCell>
        <mxCell id="i-GZ9zYqHp_gwMMXOJRL-43" value="GeneralSettings" style="swimlane;childLayout=stackLayout;horizontal=1;startSize=50;horizontalStack=0;rounded=1;fontSize=14;fontStyle=0;strokeWidth=2;resizeParent=0;resizeLast=1;shadow=0;dashed=0;align=center;arcSize=4;whiteSpace=wrap;html=1;" vertex="1" parent="1">
          <mxGeometry x="80" y="390" width="190" height="300" as="geometry" />
        </mxCell>
        <mxCell id="i-GZ9zYqHp_gwMMXOJRL-44" value="+user_id (Primary): varchar&lt;br&gt;+settings_id (Primary): int&lt;br&gt;+background_color: varchar&lt;br&gt;+font_size: int&lt;br&gt;+grammar_types: varchar&amp;nbsp;&lt;br&gt;+" style="align=left;strokeColor=none;fillColor=none;spacingLeft=4;fontSize=12;verticalAlign=top;resizable=0;rotatable=0;part=1;html=1;" vertex="1" parent="i-GZ9zYqHp_gwMMXOJRL-43">
          <mxGeometry y="50" width="190" height="250" as="geometry" />
        </mxCell>
        <mxCell id="i-GZ9zYqHp_gwMMXOJRL-46" value="" style="edgeStyle=entityRelationEdgeStyle;fontSize=12;html=1;endArrow=ERmandOne;startArrow=ERmandOne;rounded=0;exitX=1;exitY=0.5;exitDx=0;exitDy=0;" edge="1" parent="1" source="i-GZ9zYqHp_gwMMXOJRL-44" target="i-GZ9zYqHp_gwMMXOJRL-7">
          <mxGeometry width="100" height="100" relative="1" as="geometry">
            <mxPoint x="230" y="632" as="sourcePoint" />
            <mxPoint x="375" y="440" as="targetPoint" />
            <Array as="points">
              <mxPoint x="280" y="512" />
              <mxPoint x="165" y="572" />
              <mxPoint x="405" y="512" />
              <mxPoint x="285" y="532" />
              <mxPoint x="385" y="492" />
              <mxPoint x="375" y="532" />
              <mxPoint x="205" y="442" />
              <mxPoint x="355" y="502" />
              <mxPoint x="385" y="472" />
              <mxPoint x="395" y="492" />
              <mxPoint x="105" y="452" />
            </Array>
          </mxGeometry>
        </mxCell>
        <mxCell id="i-GZ9zYqHp_gwMMXOJRL-48" value="" style="edgeStyle=entityRelationEdgeStyle;fontSize=12;html=1;endArrow=ERoneToMany;startArrow=ERoneToMany;rounded=0;entryX=0;entryY=0.5;entryDx=0;entryDy=0;exitX=1;exitY=0.5;exitDx=0;exitDy=0;" edge="1" parent="1" source="i-GZ9zYqHp_gwMMXOJRL-15" target="i-GZ9zYqHp_gwMMXOJRL-21">
          <mxGeometry width="100" height="100" relative="1" as="geometry">
            <mxPoint x="460" y="350" as="sourcePoint" />
            <mxPoint x="560" y="250" as="targetPoint" />
          </mxGeometry>
        </mxCell>
        <mxCell id="i-GZ9zYqHp_gwMMXOJRL-49" value="SessionSettings" style="swimlane;childLayout=stackLayout;horizontal=1;startSize=50;horizontalStack=0;rounded=1;fontSize=14;fontStyle=0;strokeWidth=2;resizeParent=0;resizeLast=1;shadow=0;dashed=0;align=center;arcSize=4;whiteSpace=wrap;html=1;" vertex="1" parent="1">
          <mxGeometry x="405" y="330" width="245" height="300" as="geometry" />
        </mxCell>
        <mxCell id="i-GZ9zYqHp_gwMMXOJRL-50" value="+session_settings_id (Primary):&amp;nbsp; int&lt;br&gt;+user_id (Primary): varchar&lt;br&gt;+date_created: dateTime&lt;br&gt;+grammar_types: varchar&lt;br&gt;+date_updated: dateTime" style="align=left;strokeColor=none;fillColor=none;spacingLeft=4;fontSize=12;verticalAlign=top;resizable=0;rotatable=0;part=1;html=1;" vertex="1" parent="i-GZ9zYqHp_gwMMXOJRL-49">
          <mxGeometry y="50" width="245" height="250" as="geometry" />
        </mxCell>
        <mxCell id="i-GZ9zYqHp_gwMMXOJRL-51" value="" style="edgeStyle=entityRelationEdgeStyle;fontSize=12;html=1;endArrow=ERoneToMany;startArrow=ERmandOne;rounded=0;exitX=1;exitY=0.5;exitDx=0;exitDy=0;entryX=0;entryY=0.5;entryDx=0;entryDy=0;" edge="1" parent="1" source="i-GZ9zYqHp_gwMMXOJRL-7" target="i-GZ9zYqHp_gwMMXOJRL-50">
          <mxGeometry width="100" height="100" relative="1" as="geometry">
            <mxPoint x="380" y="420" as="sourcePoint" />
            <mxPoint x="560" y="330" as="targetPoint" />
          </mxGeometry>
        </mxCell>
        <mxCell id="i-GZ9zYqHp_gwMMXOJRL-52" value="GrammarType" style="swimlane;childLayout=stackLayout;horizontal=1;startSize=50;horizontalStack=0;rounded=1;fontSize=14;fontStyle=0;strokeWidth=2;resizeParent=0;resizeLast=1;shadow=0;dashed=0;align=center;arcSize=4;whiteSpace=wrap;html=1;" vertex="1" parent="1">
          <mxGeometry x="800" y="470" width="220" height="250" as="geometry" />
        </mxCell>
        <mxCell id="i-GZ9zYqHp_gwMMXOJRL-53" value="+session_setting_id: varchar&lt;br&gt;+user_id: varchar&lt;br&gt;+name: varchar&lt;br&gt;+word_family: varchar&lt;br&gt;+description: BLOB&lt;br&gt;" style="align=left;strokeColor=none;fillColor=none;spacingLeft=4;fontSize=12;verticalAlign=top;resizable=0;rotatable=0;part=1;html=1;" vertex="1" parent="i-GZ9zYqHp_gwMMXOJRL-52">
          <mxGeometry y="50" width="220" height="200" as="geometry" />
        </mxCell>
        <mxCell id="i-GZ9zYqHp_gwMMXOJRL-54" value="" style="edgeStyle=entityRelationEdgeStyle;fontSize=12;html=1;endArrow=ERzeroToMany;startArrow=ERmandOne;rounded=0;exitX=1;exitY=0.5;exitDx=0;exitDy=0;entryX=0;entryY=0.5;entryDx=0;entryDy=0;" edge="1" parent="1" source="i-GZ9zYqHp_gwMMXOJRL-50" target="i-GZ9zYqHp_gwMMXOJRL-53">
          <mxGeometry width="100" height="100" relative="1" as="geometry">
            <mxPoint x="460" y="450" as="sourcePoint" />
            <mxPoint x="560" y="350" as="targetPoint" />
          </mxGeometry>
        </mxCell>
      </root>
    </mxGraphModel>
  </diagram>
</mxfile>
